<svg xmlns="http://www.w3.org/2000/svg" version="1.1" xmlns:xlink="http://www.w3.org/1999/xlink" viewBox="0 0 16.31235534267551 13.89281794911809"><g transform="matrix(0.8466111699329701,0,0,0.8466111699329701,2.316568096600059,10.60111094359053)"><rect width="18.829453116991644" height="18.829453116991644" x="-2.5170977743161327" y="-13.731586645896801" fill="#fffef5"></rect><g transform="matrix(1,0,0,1,0,0)" clip-path="url(#SvgjsClipPath77271)"><g clip-path="url(#SvgjsClipPath7726696569085-2476-4759-bccd-411b9f47327d)"><path d=" M 9.754720174801957 -5.127360087400978 C 9.754720174801957 -2.433668247002748 7.571051927799209 -0.25 4.877360087400978 -0.25 C 2.183668247002746 -0.25 0 -2.433668247002748 0 -5.127360087400978 C 0 -7.8210519277992105 2.183668247002746 -10.004720174801957 4.877360087400978 -10.004720174801957 C 7.571051927799209 -10.004720174801957 9.754720174801957 -7.8210519277992105 9.754720174801957 -5.127360087400978 Z" fill="#390c14" transform="matrix(1,0,0,1,0,0)" fill-rule="nonzero"></path></g><g clip-path="url(#SvgjsClipPath7726696569085-2476-4759-bccd-411b9f47327d)"><path d=" M 6.134868722195731 -9.199301708261796 L 5.412655028794085 -5.794633402806612 L 7.049560610617414 -5.794633402806612 L 4.360051579280374 -0.8978853418781299 C 4.529637950135408 -0.8773294181381246 4.702260991542943 -0.8666777122001239 4.877360087400978 -0.8666777122001239 C 7.23045273952945 -0.8666777122001239 9.138042462601833 -2.774267435272505 9.138042462601833 -5.1273600874009775 C 9.138042462601833 -7.0427517178928625 7.874133460642579 -8.662792098647687 6.134868722195731 -9.199301708261794 Z" fill="#a5497e" transform="matrix(1,0,0,1,0,0)" fill-rule="nonzero"></path></g><g clip-path="url(#SvgjsClipPath7726696569085-2476-4759-bccd-411b9f47327d)"><path d=" M 4.350894849614372 -4.464758572845346 L 2.7139892677910438 -4.464758572845346 L 5.400555064592583 -9.356134062796327 C 5.229099973397548 -9.37715716662133 5.054514775633013 -9.388042462601833 4.877360087400978 -9.388042462601833 C 2.524267435272506 -9.388042462601833 0.6166777122001237 -7.480452739529451 0.6166777122001237 -5.127360087400978 C 0.6166777122001237 -3.2093055304245945 1.8841372828053777 -1.58734971132127 3.6271861799407272 -1.0531292841236617 L 4.350848131605872 -4.464711854836846 Z" fill="#c771a3" transform="matrix(1,0,0,1,0,0)" fill-rule="nonzero"></path></g><g clip-path="url(#SvgjsClipPath7726696569085-2476-4759-bccd-411b9f47327d)"><path d=" M 6.540240881950312 -5.4933022479815525 L 5.04068624511701 -5.4933022479815525 L 5.93290677145019 -9.699511425271396 L 3.2232622784496465 -4.7660897276704075 L 4.722816915282946 -4.7660897276704075 L 3.8305963889497683 -0.559880550380564 L 6.540240881950312 -5.4933022479815525 Z" fill="#f2c37c" transform="matrix(1,0,0,1,0,0)" fill-rule="nonzero"></path></g><g clip-path="url(#SvgjsClipPath7726696569085-2476-4759-bccd-411b9f47327d)"><path d=" M 2.0476970305639104 -7.645787771610983 L 2.0476970305639104 -7.645787771610983 C 2.0814274327009175 -7.612057369473977 2.136321092688428 -7.613225319686476 2.168790108595935 -7.648123672035984 C 2.198969942086941 -7.680545969934991 2.2297103916799474 -7.712407651731997 2.260964739366454 -7.743708717427003 C 2.428448799838987 -7.911192777899537 2.612704625363024 -8.063213177558568 2.8086866710205634 -8.195612013647594 C 2.933330317698588 -8.27979786496461 3.0633932533626145 -8.356508834921627 3.1973805017406414 -8.42495071737414 C 3.24045450557765 -8.446954899377644 3.2562451924506535 -8.500540455127155 3.2318583920136486 -8.542259636717663 L 3.2318583920136486 -8.542259636717663 C 3.2093870299251437 -8.580801993730171 3.160706865068134 -8.595050986322674 3.121043275851626 -8.57477537063367 C 2.716231732199045 -8.368094901029629 2.352625472043472 -8.092271778845573 2.0458283102239103 -7.762769664895007 C 2.0149009885969043 -7.7295531608515 2.015648476732905 -7.677883043450491 2.047743748572411 -7.645787771610983 Z" fill="#f2c37c" transform="matrix(1,0,0,1,0,0)" fill-rule="nonzero"></path></g><g clip-path="url(#SvgjsClipPath7726696569085-2476-4759-bccd-411b9f47327d)"><path d=" M 7.73290492094705 -7.6203731749869785 C 7.693474921773042 -7.591688317767973 7.6867008105405406 -7.535720143584962 7.717955158227047 -7.498299018776454 C 7.798964184966064 -7.401359151138935 7.875114538821079 -7.300308098753415 7.945612013647592 -7.195940067764393 C 8.061192366676615 -7.02485872063736 8.162617163130136 -6.843592847657323 8.247924246651154 -6.655926607512785 C 8.252876355552154 -6.644994593523783 8.261472469116157 -6.62532631194528 8.270582480773658 -6.604116336086275 C 8.29029748036066 -6.558332687756265 8.345378012382172 -6.539692202364762 8.38887247829568 -6.564032284793266 L 8.38905935032968 -6.564125720810266 C 8.426900937214688 -6.5852889786607705 8.442364598028192 -6.63167996110128 8.425032216874689 -6.671390268326288 C 8.276936129929657 -7.011123626138357 8.08151470037412 -7.325489105334919 7.847037015712573 -7.606077464385976 C 7.8186324665445674 -7.640088174573982 7.768737633466556 -7.646348387712983 7.73285820293855 -7.620279738969979 L 7.73285820293855 -7.620279738969979 Z" fill="#f2c37c" transform="matrix(1,0,0,1,0,0)" fill-rule="nonzero"></path></g><g clip-path="url(#SvgjsClipPath7726696569085-2476-4759-bccd-411b9f47327d)"><path d=" M 6.753321718718854 -8.431397802547142 L 6.753321718718854 -8.431397802547142 C 6.719591316581847 -8.391687495322135 6.729869278451849 -8.331327828340122 6.774578412586358 -8.304605127478116 C 6.83274233316887 -8.26984692915411 6.889925175572881 -8.233500318541102 6.9459867857728925 -8.195612013647594 C 7.097913749414922 -8.092972548973075 7.242739575764952 -7.978513428148052 7.378221800414979 -7.854243525538026 C 7.414334820985486 -7.821120457511519 7.470957047287497 -7.8256521043360205 7.501230316795503 -7.864194461348529 L 7.501230316795503 -7.864194461348529 C 7.528420197742508 -7.898812505647035 7.524309012994508 -7.948520466691045 7.491886715095502 -7.978279838105551 C 7.298614313930964 -8.155621398371586 7.087215325468421 -8.313574985110119 6.860866574285875 -8.449057209760145 C 6.825501041851369 -8.470220467610648 6.779997701572359 -8.462885740276148 6.753321718718854 -8.431444520555642 Z" fill="#f2c37c" transform="matrix(1,0,0,1,0,0)" fill-rule="nonzero"></path></g><g clip-path="url(#SvgjsClipPath7726696569085-2476-4759-bccd-411b9f47327d)"><path d=" M 1.760848458373853 -7.121424844206879 C 1.770612522150355 -7.136468042943882 1.7808904840203572 -7.152071857782884 1.7907012658053592 -7.166974902494388 C 1.8177042747183643 -7.207946595948896 1.8042027702618617 -7.263214000004408 1.7613623564673533 -7.287133620356412 L 1.7612689204503535 -7.287133620356412 C 1.7226798454293457 -7.308717340283417 1.6740463985808358 -7.296897684132914 1.6496595981438311 -7.260083893434907 C 1.6392882002568288 -7.244433360587404 1.6290569563953268 -7.2287361097314005 1.618919148550825 -7.212945422858398 C 1.5920095756548196 -7.170992651225388 1.6073798004513224 -7.114977759033877 1.6517619085263315 -7.092319524911373 L 1.6517619085263315 -7.092319524911373 C 1.6902108295218392 -7.072697961341369 1.7373025820898487 -7.085265105627872 1.7608484583738533 -7.121424844206879 Z" fill="#f2c37c" transform="matrix(1,0,0,1,0,0)" fill-rule="nonzero"></path></g><g clip-path="url(#SvgjsClipPath7726696569085-2476-4759-bccd-411b9f47327d)"><path d=" M 3.6348946513432283 -8.613738189722678 C 3.749634080219251 -8.654709883177185 3.866008639392775 -8.689795107560693 3.983784738821299 -8.7190405808817 C 4.029288079100308 -8.730346338938702 4.056758268098314 -8.77659716735371 4.04479845792231 -8.821960353607219 L 4.04479845792231 -8.821960353607219 C 4.033072237788808 -8.866389179690728 3.9878959235692997 -8.893111880552734 3.9432802254517907 -8.882086430546732 C 3.8191971948757657 -8.851345980953726 3.697450064724741 -8.814578908264219 3.578365861058217 -8.77215895654621 C 3.534264061034208 -8.756461705690207 3.511559108903204 -8.707734822824698 3.5278169758612066 -8.663819894834688 L 3.5278169758612066 -8.663633022800688 C 3.54384125277671 -8.620512300955179 3.5915403394552197 -8.598274528909174 3.634847933334728 -8.613738189722678 Z" fill="#f2c37c" transform="matrix(1,0,0,1,0,0)" fill-rule="nonzero"></path></g></g><g><path d=" M 1.56375 0.039000000000000146 Q 1.6620000000000001 0.07800000000000007 1.7175 0.15300000000000014 Q 1.7730000000000001 0.2280000000000001 1.7730000000000001 0.33150000000000013 Q 1.7730000000000001 0.43200000000000016 1.7175 0.5077500000000001 Q 1.6620000000000001 0.5835000000000001 1.563 0.6240000000000001 Q 1.464 0.6645000000000001 1.3395000000000001 0.6645000000000001 L 0.615 0.6645000000000001 L 0.615 0.8715000000000002 L 0.9525 0.8715000000000002 L 0.9525 1.0290000000000001 L 0.0975 1.0290000000000001 L 0.0975 0.8715000000000002 L 0.41550000000000004 0.8715000000000002 L 0.41550000000000004 0.15750000000000008 L 0.0975 0.15750000000000008 L 0.0975 2.220446049250313e-16 L 1.3395000000000001 2.220446049250313e-16 Q 1.4655 2.220446049250313e-16 1.56375 0.039000000000000146 M 1.5045 0.46350000000000013 Q 1.569 0.4155000000000001 1.569 0.33450000000000013 Q 1.569 0.25050000000000017 1.50525 0.20400000000000007 Q 1.4415 0.15750000000000008 1.335 0.15750000000000008 L 0.615 0.15750000000000008 L 0.615 0.5115000000000002 L 1.335 0.5115000000000002 Q 1.44 0.5115000000000002 1.5045 0.46350000000000013 M 2.659491943359375 0.8805000000000002 L 2.659491943359375 1.0290000000000001 L 1.895991943359375 1.0290000000000001 L 1.895991943359375 0.8805000000000002 L 2.191491943359375 0.8805000000000002 L 2.191491943359375 0.14850000000000008 L 1.895991943359375 0.14850000000000008 L 1.895991943359375 2.220446049250313e-16 L 2.378991943359375 2.220446049250313e-16 L 2.378991943359375 0.8805000000000002 L 2.659491943359375 0.8805000000000002 M 4.39495458984375 0.9945000000000002 Q 4.35745458984375 1.0200000000000002 4.31545458984375 1.0335 Q 4.27345458984375 1.0470000000000002 4.21345458984375 1.0470000000000002 Q 4.11445458984375 1.0470000000000002 4.04995458984375 0.9862500000000002 Q 3.98545458984375 0.9255000000000001 3.98395458984375 0.8145000000000001 Q 3.85495458984375 0.9225000000000001 3.72445458984375 0.9855000000000002 Q 3.59395458984375 1.0485000000000002 3.45145458984375 1.0485000000000002 Q 3.22345458984375 1.0485000000000002 3.11920458984375 0.9210000000000002 Q 3.01495458984375 0.7935000000000001 3.01495458984375 0.5940000000000001 L 3.01495458984375 0.4710000000000001 L 2.73745458984375 0.4710000000000001 L 2.73745458984375 0.3225000000000001 L 3.20245458984375 0.3225000000000001 L 3.20245458984375 0.6015000000000001 Q 3.20245458984375 0.8715000000000002 3.49495458984375 0.8715000000000002 Q 3.72145458984375 0.8715000000000002 3.98395458984375 0.6645000000000001 L 3.98395458984375 0.4710000000000001 L 3.73795458984375 0.4710000000000001 L 3.73795458984375 0.3225000000000001 L 4.17145458984375 0.3225000000000001 L 4.17145458984375 0.7740000000000001 Q 4.17145458984375 0.8355000000000001 4.196954589843751 0.8640000000000001 Q 4.22245458984375 0.8925000000000001 4.25995458984375 0.8925000000000001 Q 4.30495458984375 0.8925000000000001 4.34845458984375 0.8640000000000001 L 4.39495458984375 0.9945000000000002 M 5.78316357421875 0.9217500000000002 Q 5.86191357421875 0.9750000000000001 5.86191357421875 1.0710000000000002 Q 5.86191357421875 1.1670000000000003 5.76591357421875 1.2345000000000002 Q 5.66991357421875 1.302 5.49891357421875 1.3365 Q 5.32791357421875 1.3710000000000002 5.10441357421875 1.3710000000000002 Q 4.91991357421875 1.3710000000000002 4.79241357421875 1.3395000000000001 Q 4.66491357421875 1.3080000000000003 4.60191357421875 1.2525000000000002 Q 4.53891357421875 1.197 4.53891357421875 1.1265 Q 4.53891357421875 1.0305000000000002 4.62441357421875 0.9690000000000001 Q 4.56891357421875 0.9210000000000002 4.56891357421875 0.8520000000000001 Q 4.56891357421875 0.8040000000000002 4.60191357421875 0.7597500000000001 Q 4.63491357421875 0.7155000000000001 4.68741357421875 0.687 Q 4.62591357421875 0.6300000000000001 4.62591357421875 0.5565000000000001 Q 4.62591357421875 0.4335000000000001 4.78191357421875 0.3682500000000001 Q 4.93791357421875 0.30300000000000016 5.18841357421875 0.30300000000000016 Q 5.40141357421875 0.30300000000000016 5.54241357421875 0.34950000000000014 Q 5.56341357421875 0.2340000000000001 5.64741357421875 0.1755000000000001 Q 5.73141357421875 0.1170000000000001 5.83941357421875 0.11250000000000016 L 5.83941357421875 0.2745000000000001 Q 5.67591357421875 0.2745000000000001 5.62941357421875 0.3855000000000002 Q 5.75091357421875 0.4500000000000002 5.75091357421875 0.5565000000000001 Q 5.75091357421875 0.6795000000000001 5.59416357421875 0.7455 Q 5.43741357421875 0.8115000000000001 5.18841357421875 0.8115000000000001 Q 4.93341357421875 0.8115000000000001 4.78491357421875 0.7470000000000001 Q 4.73991357421875 0.7785000000000002 4.73991357421875 0.8205000000000001 Q 4.73991357421875 0.9195000000000001 4.98291357421875 0.9195000000000001 Q 5.05041357421875 0.9195000000000001 5.15391357421875 0.9075000000000002 Q 5.25741357421875 0.8955000000000002 5.27691357421875 0.8940000000000001 Q 5.48091357421875 0.8685000000000002 5.56641357421875 0.8685000000000002 Q 5.70441357421875 0.8685000000000002 5.78316357421875 0.9217500000000002 M 4.91541357421875 0.4590000000000001 Q 4.81341357421875 0.49050000000000016 4.81341357421875 0.5565000000000001 Q 4.81341357421875 0.6210000000000001 4.91616357421875 0.6540000000000001 Q 5.01891357421875 0.687 5.18841357421875 0.687 Q 5.35791357421875 0.687 5.46066357421875 0.6540000000000001 Q 5.56341357421875 0.6210000000000001 5.56341357421875 0.5565000000000001 Q 5.56341357421875 0.49050000000000016 5.46141357421875 0.4590000000000001 Q 5.35941357421875 0.4275000000000001 5.18841357421875 0.4275000000000001 Q 5.01741357421875 0.4275000000000001 4.91541357421875 0.4590000000000001 M 5.41266357421875 1.21575 Q 5.5409135742187505 1.1955000000000002 5.6076635742187495 1.16175 Q 5.67441357421875 1.1280000000000001 5.67441357421875 1.086 Q 5.67441357421875 1.0485000000000002 5.64216357421875 1.0305000000000002 Q 5.60991357421875 1.0125000000000002 5.54241357421875 1.0125000000000002 Q 5.4944135742187505 1.0125000000000002 5.40966357421875 1.02225 Q 5.32491357421875 1.032 5.30691357421875 1.0335 Q 5.19141357421875 1.0470000000000002 5.11416357421875 1.0545000000000002 Q 5.03691357421875 1.062 4.97241357421875 1.062 Q 4.83441357421875 1.062 4.73541357421875 1.0290000000000001 Q 4.71441357421875 1.0545000000000002 4.71441357421875 1.0905 Q 4.71441357421875 1.1535000000000002 4.81416357421875 1.1947500000000002 Q 4.91391357421875 1.2360000000000002 5.10441357421875 1.2360000000000002 Q 5.28441357421875 1.2360000000000002 5.41266357421875 1.21575 M 7.57041796875 2.220446049250313e-16 L 7.57041796875 0.4035000000000001 L 7.393417968750001 0.4035000000000001 L 7.393417968750001 0.15600000000000014 L 6.86091796875 0.15600000000000014 L 6.86091796875 0.8715000000000002 L 7.18791796875 0.8715000000000002 L 7.18791796875 1.0290000000000001 L 6.33591796875 1.0290000000000001 L 6.33591796875 0.8715000000000002 L 6.66141796875 0.8715000000000002 L 6.66141796875 0.15600000000000014 L 6.12891796875 0.15600000000000014 L 6.12891796875 0.4035000000000001 L 5.95341796875 0.4035000000000001 L 5.95341796875 2.220446049250313e-16 L 7.57041796875 2.220446049250313e-16 M 8.98041357421875 0.30600000000000016 L 8.98041357421875 0.6585000000000001 L 8.81841357421875 0.6585000000000001 L 8.81841357421875 0.4800000000000001 Q 8.692413574218751 0.4830000000000001 8.54016357421875 0.5415000000000001 Q 8.38791357421875 0.6000000000000001 8.23191357421875 0.7125000000000001 L 8.23191357421875 0.8805000000000002 L 8.51091357421875 0.8805000000000002 L 8.51091357421875 1.0290000000000001 L 7.74741357421875 1.0290000000000001 L 7.74741357421875 0.8805000000000002 L 8.04441357421875 0.8805000000000002 L 8.04441357421875 0.4710000000000001 L 7.74741357421875 0.4710000000000001 L 7.74741357421875 0.3225000000000001 L 8.23191357421875 0.3225000000000001 L 8.23191357421875 0.5850000000000002 Q 8.57691357421875 0.3045000000000001 8.89191357421875 0.3045000000000001 L 8.98041357421875 0.30600000000000016 M 10.62884033203125 0.9945000000000002 Q 10.59134033203125 1.0185000000000002 10.55009033203125 1.03275 Q 10.50884033203125 1.0470000000000002 10.45484033203125 1.0470000000000002 Q 10.38434033203125 1.0470000000000002 10.32959033203125 1.0072500000000002 Q 10.27484033203125 0.9675000000000001 10.25384033203125 0.9015000000000002 Q 10.10834033203125 0.9690000000000001 9.93884033203125 1.00875 Q 9.76934033203125 1.0485000000000002 9.60134033203125 1.0485000000000002 Q 9.40634033203125 1.0485000000000002 9.30284033203125 0.9900000000000001 Q 9.19934033203125 0.9315000000000001 9.19934033203125 0.8235000000000001 Q 9.19934033203125 0.7065000000000001 9.32984033203125 0.6435000000000002 Q 9.460340332031251 0.5805000000000001 9.69884033203125 0.5805000000000001 Q 9.96434033203125 0.5805000000000001 10.23734033203125 0.6630000000000001 Q 10.22084033203125 0.5505000000000001 10.12034033203125 0.49950000000000017 Q 10.01984033203125 0.4485000000000001 9.81584033203125 0.4485000000000001 Q 9.55034033203125 0.4485000000000001 9.25484033203125 0.5400000000000001 L 9.21434033203125 0.40200000000000014 Q 9.36284033203125 0.35550000000000015 9.52634033203125 0.33000000000000007 Q 9.68984033203125 0.3045000000000001 9.85034033203125 0.3045000000000001 Q 10.13234033203125 0.3045000000000001 10.26959033203125 0.40875000000000017 Q 10.40684033203125 0.5130000000000001 10.40684033203125 0.7080000000000002 L 10.40684033203125 0.7830000000000001 Q 10.40684033203125 0.8385000000000001 10.43159033203125 0.8655000000000002 Q 10.45634033203125 0.8925000000000001 10.493840332031251 0.8925000000000001 Q 10.53884033203125 0.8925000000000001 10.58084033203125 0.8640000000000001 L 10.62884033203125 0.9945000000000002 M 9.45809033203125 0.8820000000000001 Q 9.51584033203125 0.9030000000000001 9.647840332031251 0.9030000000000001 Q 9.77234033203125 0.9030000000000001 9.93509033203125 0.8745000000000002 Q 10.09784033203125 0.8460000000000001 10.24184033203125 0.7980000000000002 L 10.24184033203125 0.7665000000000002 Q 9.97034033203125 0.7155000000000001 9.69884033203125 0.7155000000000001 Q 9.55484033203125 0.7155000000000001 9.47759033203125 0.7425000000000002 Q 9.40034033203125 0.7695000000000001 9.40034033203125 0.8175000000000001 Q 9.40034033203125 0.8610000000000001 9.45809033203125 0.8820000000000001 M 12.283307373046876 0.9945000000000002 Q 12.247307373046874 1.0185000000000002 12.204557373046875 1.03275 Q 12.161807373046875 1.0470000000000002 12.101807373046874 1.0470000000000002 Q 12.005807373046874 1.0470000000000002 11.942807373046875 0.9885000000000002 Q 11.879807373046875 0.9300000000000002 11.873807373046875 0.8235000000000001 Q 11.704307373046875 0.9315000000000001 11.544557373046874 0.9915000000000002 Q 11.384807373046876 1.0515 11.209307373046874 1.0515 Q 11.065307373046876 1.0515 10.955807373046875 1.0110000000000001 Q 10.846307373046875 0.9705000000000001 10.784057373046876 0.8917500000000002 Q 10.721807373046875 0.8130000000000002 10.721807373046875 0.7020000000000002 Q 10.721807373046875 0.5820000000000001 10.799057373046875 0.4912500000000001 Q 10.876307373046876 0.4005000000000001 11.006807373046875 0.35250000000000015 Q 11.137307373046875 0.3045000000000001 11.293307373046876 0.3045000000000001 Q 11.587307373046874 0.3045000000000001 11.873807373046875 0.42300000000000015 L 11.873807373046875 0.14850000000000008 L 11.590307373046874 0.14850000000000008 L 11.590307373046874 2.220446049250313e-16 L 12.061307373046875 2.220446049250313e-16 L 12.061307373046875 0.7740000000000001 Q 12.061307373046875 0.8355000000000001 12.086057373046875 0.8640000000000001 Q 12.110807373046875 0.8925000000000001 12.148307373046876 0.8925000000000001 Q 12.194807373046874 0.8925000000000001 12.238307373046876 0.8640000000000001 L 12.283307373046876 0.9945000000000002 M 11.003057373046875 0.8400000000000001 Q 11.087807373046875 0.8940000000000001 11.240807373046875 0.8940000000000001 Q 11.375807373046875 0.8940000000000001 11.540807373046874 0.8400000000000001 Q 11.705807373046875 0.7860000000000001 11.873807373046875 0.6885000000000001 L 11.873807373046875 0.5535000000000001 Q 11.750807373046875 0.5115000000000002 11.602307373046875 0.4860000000000001 Q 11.453807373046875 0.46050000000000013 11.312807373046875 0.46050000000000013 Q 11.197307373046876 0.46050000000000013 11.107307373046876 0.48975000000000013 Q 11.017307373046876 0.5190000000000001 10.967807373046876 0.5715000000000001 Q 10.918307373046876 0.6240000000000001 10.918307373046876 0.6915000000000001 Q 10.918307373046876 0.7860000000000001 11.003057373046875 0.8400000000000001 M 13.6902802734375 0.9105000000000001 Q 13.5792802734375 0.9735000000000001 13.4300302734375 1.0117500000000001 Q 13.2807802734375 1.05 13.111280273437501 1.05 Q 12.923780273437501 1.05 12.7707802734375 1.00875 Q 12.6177802734375 0.9675000000000001 12.5277802734375 0.8850000000000001 Q 12.4377802734375 0.8025000000000001 12.4377802734375 0.6825000000000001 Q 12.4377802734375 0.5700000000000001 12.5240302734375 0.4837500000000001 Q 12.6102802734375 0.3975000000000001 12.7625302734375 0.3502500000000002 Q 12.9147802734375 0.30300000000000016 13.1097802734375 0.30300000000000016 Q 13.3617802734375 0.30300000000000016 13.5072802734375 0.3660000000000001 Q 13.6527802734375 0.42900000000000016 13.6527802734375 0.5475000000000001 Q 13.6527802734375 0.6585000000000001 13.5267802734375 0.7140000000000002 Q 13.4007802734375 0.7695000000000001 13.1667802734375 0.7695000000000001 Q 12.9207802734375 0.7695000000000001 12.6177802734375 0.6735000000000002 L 12.6177802734375 0.6765000000000001 Q 12.6177802734375 0.7470000000000001 12.6822802734375 0.7987500000000001 Q 12.7467802734375 0.8505000000000001 12.8607802734375 0.8782500000000002 Q 12.9747802734375 0.9060000000000001 13.1217802734375 0.9060000000000001 Q 13.4082802734375 0.9060000000000001 13.6287802734375 0.7845000000000002 L 13.6902802734375 0.9105000000000001 M 12.8487802734375 0.47025000000000017 Q 12.7212802734375 0.5055000000000002 12.6612802734375 0.5700000000000001 Q 12.7842802734375 0.6045000000000001 12.9192802734375 0.6210000000000001 Q 13.0542802734375 0.6375000000000002 13.1712802734375 0.6375000000000002 Q 13.3242802734375 0.6375000000000002 13.394780273437501 0.6172500000000001 Q 13.4652802734375 0.5970000000000002 13.4652802734375 0.5460000000000002 Q 13.4652802734375 0.49350000000000016 13.3752802734375 0.46425000000000016 Q 13.2852802734375 0.43500000000000016 13.1262802734375 0.43500000000000016 Q 12.9762802734375 0.43500000000000016 12.8487802734375 0.47025000000000017" fill="#390c14" fill-rule="nonzero"></path></g><g></g></g><defs><clipPath id="SvgjsClipPath77271"><path d=" M 0 -10.004720174801957 h 9.754720174801957 v 9.754720174801957 h -9.754720174801957 Z"></path></clipPath><clipPath id="SvgjsClipPath7726696569085-2476-4759-bccd-411b9f47327d"><path d=" M 0 -10.004720174801957 L 9.754720174801957 -10.004720174801957 L 9.754720174801957 -0.25 L 0 -0.25 Z"></path></clipPath></defs></svg>